<svg width="186" height="57" viewBox="0 0 186 57" fill="none" xmlns="http://www.w3.org/2000/svg">
<path d="M0 27.6444C3.61291 25.7236 14.4059 16.6227 29.0862 17.9032V56.0903H13.4912L12.4851 37.5227C12.8967 31.1658 4.35988 36.105 0 39.3063V27.6444Z" fill="#1283FB"/>
<path d="M58.1723 27.6315C54.5594 25.7106 43.7664 16.6223 29.0861 17.9029V56.0773H44.6811L45.6872 37.5097C45.2756 31.1528 53.8124 36.092 58.1723 39.2933V27.6315Z" fill="#2ADAFF"/>
<circle cx="20.5798" cy="7.93346" r="7.86608" fill="#1283FB"/>
<circle cx="37.6839" cy="7.93346" r="7.86608" fill="#2ADAFF"/>
<path d="M90.2521 26.1416L90.0727 31.2156C89.6627 31.3608 89.2185 31.4932 88.7402 31.6128C88.2703 31.7239 87.792 31.8178 87.3051 31.8947C86.8182 31.9801 86.3355 32.0442 85.8572 32.0869C85.3874 32.1296 84.9474 32.151 84.5374 32.151C83.2305 32.151 82.0516 31.9289 81.001 31.4847C79.9588 31.0405 79.0704 30.4084 78.3358 29.5883C77.6097 28.7597 77.0502 27.756 76.6573 26.5772C76.2729 25.3984 76.0807 24.0701 76.0807 22.5923C76.0807 21.0803 76.2857 19.7136 76.6957 18.4921C77.1057 17.2705 77.6909 16.2284 78.4511 15.3656C79.2114 14.4943 80.1297 13.8281 81.206 13.3668C82.2908 12.897 83.4995 12.6621 84.8321 12.6621C85.208 12.6621 85.6052 12.6834 86.0237 12.7261C86.4423 12.7603 86.8651 12.8158 87.2923 12.8927C87.7279 12.961 88.155 13.0465 88.5736 13.149C89.0007 13.2515 89.4107 13.3668 89.8036 13.4949L89.9574 18.1717H89.0605C88.9836 17.2407 88.8128 16.4847 88.548 15.9038C88.2917 15.3144 87.9671 14.8574 87.5741 14.5328C87.1812 14.2082 86.737 13.9861 86.2416 13.8665C85.7461 13.7469 85.2208 13.6871 84.6655 13.6871C84.1018 13.6871 83.5679 13.7384 83.0639 13.8409C82.5599 13.9434 82.0901 14.1228 81.6544 14.379C81.2273 14.6353 80.8387 14.977 80.4884 15.4041C80.1467 15.8312 79.8563 16.3736 79.6171 17.0314C79.3779 17.6891 79.19 18.4707 79.0533 19.3762C78.9252 20.2731 78.8611 21.3195 78.8611 22.5154C78.8611 23.7028 78.9252 24.7407 79.0533 25.629C79.1815 26.5089 79.3609 27.2691 79.5915 27.9098C79.8307 28.5505 80.1168 29.0801 80.45 29.4986C80.7917 29.9087 81.1675 30.2375 81.5776 30.4853C81.9961 30.7244 82.4489 30.891 82.9358 30.985C83.4227 31.0789 83.9352 31.1259 84.4733 31.1259C85.1225 31.1259 85.7205 31.0533 86.2672 30.9081C86.8224 30.7543 87.3093 30.4895 87.7279 30.1137C88.155 29.7378 88.5052 29.2296 88.7786 28.5889C89.0605 27.9482 89.2527 27.1325 89.3552 26.1416H90.2521ZM95.4543 30.6903V14.1228H92.8916V13.0977H100.516V14.1228H97.9529V21.5416H106.525V14.1228H103.962V13.0977H111.586V14.1228H109.023V30.6903H111.586V31.7153H103.962V30.6903H106.525V22.5923H97.9529V30.6903H100.516V31.7153H92.8916V30.6903H95.4543ZM118.159 30.6903V31.7153H111.919V30.6903H114.354L121.017 12.9055H122.029L128.282 30.6903H130.819V31.7153H122.939V30.6903H125.604L123.682 25.219H117.634L115.597 30.6903H118.159ZM120.735 16.9545L118.031 24.1812H123.323L120.786 16.9545H120.735ZM133.971 30.6903V14.1228H131.408V13.0977H139.032V14.1228H136.469V21.5416H145.041V14.1228H142.479V13.0977H150.103V14.1228H147.54V30.6903H150.103V31.7153H142.479V30.6903H145.041V22.5923H136.469V30.6903H139.032V31.7153H131.408V30.6903H133.971ZM156.842 21.5416H158.521C159.093 21.5416 159.572 21.5203 159.956 21.4776C160.34 21.4348 160.648 21.3153 160.879 21.1188C161.118 20.9138 161.297 20.602 161.417 20.1834C161.536 19.7563 161.622 19.1584 161.673 18.3896H162.583V25.975H161.673C161.63 25.1977 161.558 24.5869 161.455 24.1427C161.353 23.69 161.186 23.3483 160.956 23.1177C160.725 22.887 160.413 22.7418 160.02 22.682C159.636 22.6222 159.136 22.5923 158.521 22.5923H156.842V30.6903H160.238C160.904 30.6903 161.489 30.6646 161.993 30.6134C162.497 30.5621 162.937 30.4682 163.313 30.3315C163.689 30.1948 164.009 30.0026 164.274 29.7549C164.548 29.5072 164.782 29.1869 164.979 28.7939C165.175 28.401 165.342 27.9226 165.479 27.3588C165.615 26.7951 165.743 26.1288 165.863 25.36H166.76L166.504 31.7153H151.781V30.6903H154.344V14.1228H151.781V13.0977H166.183L166.44 18.2358H165.543C165.415 17.3816 165.257 16.6897 165.069 16.1601C164.881 15.6219 164.616 15.2033 164.274 14.9044C163.941 14.5969 163.501 14.3918 162.954 14.2893C162.416 14.1783 161.733 14.1228 160.904 14.1228H156.842V21.5416ZM177.408 30.6903C178.074 30.6903 178.659 30.6646 179.163 30.6134C179.667 30.5621 180.107 30.4682 180.483 30.3315C180.867 30.1863 181.196 29.9898 181.47 29.7421C181.743 29.4858 181.978 29.157 182.174 28.7555C182.371 28.354 182.537 27.8671 182.674 27.2948C182.819 26.7139 182.947 26.0263 183.058 25.2318H183.955L183.673 31.7153H169.335V30.6903H171.898V14.1228H169.335V13.0977H176.959V14.1228H174.397V30.6903H177.408Z" fill="#1283FB"/>
<path d="M100.434 38.1966V39.0101H98.8162V44.2759H97.819V39.0101H96.192V38.1966H100.434ZM103.937 39.3775C104.305 39.3775 104.631 39.4562 104.917 39.6136C105.208 39.7711 105.436 40.0043 105.599 40.3134C105.768 40.6225 105.853 40.9957 105.853 41.433V44.2759H104.864V41.5818C104.864 41.1502 104.757 40.8207 104.541 40.5933C104.325 40.3601 104.031 40.2434 103.657 40.2434C103.284 40.2434 102.987 40.3601 102.765 40.5933C102.549 40.8207 102.441 41.1502 102.441 41.5818V44.2759H101.444V37.803H102.441V40.016C102.611 39.8119 102.823 39.6545 103.08 39.5437C103.342 39.4329 103.628 39.3775 103.937 39.3775ZM111.542 41.7479C111.542 41.9287 111.53 42.092 111.507 42.2378H107.825C107.854 42.6227 107.997 42.9317 108.253 43.165C108.51 43.3982 108.825 43.5149 109.198 43.5149C109.734 43.5149 110.113 43.2904 110.335 42.8413H111.411C111.265 43.2845 111 43.649 110.615 43.9347C110.236 44.2146 109.764 44.3546 109.198 44.3546C108.737 44.3546 108.323 44.2526 107.956 44.0485C107.594 43.8385 107.309 43.5469 107.099 43.1737C106.894 42.7947 106.792 42.3573 106.792 41.8617C106.792 41.366 106.892 40.9315 107.09 40.5583C107.294 40.1793 107.577 39.8877 107.938 39.6836C108.306 39.4795 108.726 39.3775 109.198 39.3775C109.653 39.3775 110.058 39.4766 110.414 39.6749C110.769 39.8731 111.046 40.153 111.245 40.5146C111.443 40.8703 111.542 41.2814 111.542 41.7479ZM110.501 41.433C110.495 41.0657 110.364 40.7712 110.108 40.5496C109.851 40.328 109.533 40.2172 109.154 40.2172C108.81 40.2172 108.516 40.328 108.271 40.5496C108.026 40.7653 107.88 41.0598 107.833 41.433H110.501Z" fill="#777777"/>
<path d="M116.776 39.0013V40.7858H118.876V41.5992H116.776V43.4624H119.138V44.2759H115.779V38.1879H119.138V39.0013H116.776ZM124.066 40.6895V41.5293H120.471V40.6895H124.066ZM126.48 43.4711H128.536V44.2759H125.483V38.1966H126.48V43.4711ZM133.787 41.7479C133.787 41.9287 133.775 42.092 133.752 42.2378H130.069C130.099 42.6227 130.242 42.9317 130.498 43.165C130.755 43.3982 131.07 43.5149 131.443 43.5149C131.979 43.5149 132.358 43.2904 132.58 42.8413H133.656C133.51 43.2845 133.245 43.649 132.86 43.9347C132.481 44.2146 132.008 44.3546 131.443 44.3546C130.982 44.3546 130.568 44.2526 130.201 44.0485C129.839 43.8385 129.553 43.5469 129.343 43.1737C129.139 42.7947 129.037 42.3573 129.037 41.8617C129.037 41.366 129.136 40.9315 129.335 40.5583C129.539 40.1793 129.822 39.8877 130.183 39.6836C130.551 39.4795 130.97 39.3775 131.443 39.3775C131.898 39.3775 132.303 39.4766 132.659 39.6749C133.014 39.8731 133.291 40.153 133.49 40.5146C133.688 40.8703 133.787 41.2814 133.787 41.7479ZM132.746 41.433C132.74 41.0657 132.609 40.7712 132.352 40.5496C132.096 40.328 131.778 40.2172 131.399 40.2172C131.055 40.2172 130.761 40.328 130.516 40.5496C130.271 40.7653 130.125 41.0598 130.078 41.433H132.746ZM134.436 41.8442C134.436 41.3602 134.535 40.9315 134.733 40.5583C134.937 40.1851 135.212 39.8965 135.556 39.6924C135.905 39.4824 136.29 39.3775 136.71 39.3775C137.089 39.3775 137.419 39.4533 137.699 39.6049C137.984 39.7507 138.212 39.9344 138.381 40.156V39.4562H139.387V44.2759H138.381V43.5586C138.212 43.786 137.981 43.9756 137.69 44.1272C137.398 44.2788 137.066 44.3546 136.693 44.3546C136.279 44.3546 135.9 44.2496 135.556 44.0397C135.212 43.8239 134.937 43.5265 134.733 43.1475C134.535 42.7626 134.436 42.3282 134.436 41.8442ZM138.381 41.8617C138.381 41.5293 138.311 41.2406 138.171 40.9957C138.037 40.7508 137.859 40.5642 137.637 40.4359C137.416 40.3076 137.177 40.2434 136.92 40.2434C136.664 40.2434 136.424 40.3076 136.203 40.4359C135.981 40.5583 135.801 40.742 135.661 40.9869C135.526 41.226 135.459 41.5118 135.459 41.8442C135.459 42.1766 135.526 42.4681 135.661 42.7189C135.801 42.9696 135.981 43.1621 136.203 43.2962C136.43 43.4245 136.669 43.4886 136.92 43.4886C137.177 43.4886 137.416 43.4245 137.637 43.2962C137.859 43.1679 138.037 42.9813 138.171 42.7364C138.311 42.4856 138.381 42.1941 138.381 41.8617ZM141.694 40.156C141.84 39.911 142.032 39.7215 142.271 39.5874C142.516 39.4474 142.805 39.3775 143.137 39.3775V40.4096H142.883C142.493 40.4096 142.195 40.5088 141.991 40.707C141.793 40.9053 141.694 41.2494 141.694 41.7392V44.2759H140.697V39.4562H141.694V40.156ZM146.485 39.3775C146.864 39.3775 147.203 39.4562 147.5 39.6136C147.803 39.7711 148.039 40.0043 148.209 40.3134C148.378 40.6225 148.462 40.9957 148.462 41.433V44.2759H147.474V41.5818C147.474 41.1502 147.366 40.8207 147.15 40.5933C146.934 40.3601 146.64 40.2434 146.267 40.2434C145.893 40.2434 145.596 40.3601 145.374 40.5933C145.159 40.8207 145.051 41.1502 145.051 41.5818V44.2759H144.054V39.4562H145.051V40.0073C145.214 39.809 145.421 39.6545 145.672 39.5437C145.928 39.4329 146.2 39.3775 146.485 39.3775ZM150.242 38.8176C150.061 38.8176 149.909 38.7564 149.787 38.634C149.664 38.5115 149.603 38.3599 149.603 38.1791C149.603 37.9983 149.664 37.8467 149.787 37.7243C149.909 37.6018 150.061 37.5406 150.242 37.5406C150.416 37.5406 150.565 37.6018 150.688 37.7243C150.81 37.8467 150.871 37.9983 150.871 38.1791C150.871 38.3599 150.81 38.5115 150.688 38.634C150.565 38.7564 150.416 38.8176 150.242 38.8176ZM150.731 39.4562V44.2759H149.734V39.4562H150.731ZM154.472 39.3775C154.851 39.3775 155.19 39.4562 155.487 39.6136C155.79 39.7711 156.026 40.0043 156.195 40.3134C156.365 40.6225 156.449 40.9957 156.449 41.433V44.2759H155.461V41.5818C155.461 41.1502 155.353 40.8207 155.137 40.5933C154.921 40.3601 154.627 40.2434 154.254 40.2434C153.88 40.2434 153.583 40.3601 153.361 40.5933C153.146 40.8207 153.038 41.1502 153.038 41.5818V44.2759H152.041V39.4562H153.038V40.0073C153.201 39.809 153.408 39.6545 153.659 39.5437C153.915 39.4329 154.187 39.3775 154.472 39.3775ZM159.663 39.3775C160.036 39.3775 160.366 39.4533 160.651 39.6049C160.943 39.7507 161.17 39.9344 161.334 40.156V39.4562H162.34V44.3546C162.34 44.7978 162.246 45.1914 162.06 45.5355C161.873 45.8854 161.602 46.1594 161.246 46.3577C160.896 46.556 160.476 46.6551 159.987 46.6551C159.334 46.6551 158.791 46.5006 158.36 46.1915C157.928 45.8883 157.683 45.4742 157.625 44.9494H158.613C158.689 45.2002 158.85 45.4013 159.094 45.553C159.345 45.7104 159.643 45.7891 159.987 45.7891C160.389 45.7891 160.713 45.6667 160.958 45.4218C161.208 45.1768 161.334 44.8211 161.334 44.3546V43.5499C161.165 43.7773 160.934 43.9697 160.643 44.1272C160.357 44.2788 160.03 44.3546 159.663 44.3546C159.243 44.3546 158.858 44.2496 158.508 44.0397C158.164 43.8239 157.89 43.5265 157.686 43.1475C157.488 42.7626 157.389 42.3282 157.389 41.8442C157.389 41.3602 157.488 40.9315 157.686 40.5583C157.89 40.1851 158.164 39.8965 158.508 39.6924C158.858 39.4824 159.243 39.3775 159.663 39.3775ZM161.334 41.8617C161.334 41.5293 161.264 41.2406 161.124 40.9957C160.99 40.7508 160.812 40.5642 160.59 40.4359C160.369 40.3076 160.13 40.2434 159.873 40.2434C159.616 40.2434 159.377 40.3076 159.156 40.4359C158.934 40.5583 158.753 40.742 158.613 40.9869C158.479 41.226 158.412 41.5118 158.412 41.8442C158.412 42.1766 158.479 42.4681 158.613 42.7189C158.753 42.9696 158.934 43.1621 159.156 43.2962C159.383 43.4245 159.622 43.4886 159.873 43.4886C160.13 43.4886 160.369 43.4245 160.59 43.2962C160.812 43.1679 160.99 42.9813 161.124 42.7364C161.264 42.4856 161.334 42.1941 161.334 41.8617Z" fill="#1283FB"/>
</svg>
